<mxfile host="app.diagrams.net" agent="Mozilla/5.0 (Windows NT 10.0; Win64; x64) AppleWebKit/537.36 (KHTML, like Gecko) Chrome/130.0.0.0 Safari/537.36" version="24.7.12" pages="2">
  <diagram name="Rules engine" id="vaKQWsUMFKMGO19Zixb-">
    <mxGraphModel dx="2074" dy="1140" grid="1" gridSize="10" guides="1" tooltips="1" connect="1" arrows="1" fold="1" page="1" pageScale="1" pageWidth="827" pageHeight="1169" math="0" shadow="0">
      <root>
        <mxCell id="0" />
        <mxCell id="1" parent="0" />
        <mxCell id="3u4PK2hD2adv2a_8tMnY-1" value="Module" style="shape=module;align=left;spacingLeft=20;align=center;verticalAlign=top;whiteSpace=wrap;html=1;" vertex="1" parent="1">
          <mxGeometry x="590" y="640" width="110" height="90" as="geometry" />
        </mxCell>
        <mxCell id="3u4PK2hD2adv2a_8tMnY-2" value="rule" style="rounded=0;whiteSpace=wrap;html=1;" vertex="1" parent="1">
          <mxGeometry x="610" y="700" width="80" height="20" as="geometry" />
        </mxCell>
        <mxCell id="3u4PK2hD2adv2a_8tMnY-4" value="Module" style="shape=module;align=left;spacingLeft=20;align=center;verticalAlign=top;whiteSpace=wrap;html=1;" vertex="1" parent="1">
          <mxGeometry x="444" y="640" width="110" height="90" as="geometry" />
        </mxCell>
        <mxCell id="3u4PK2hD2adv2a_8tMnY-5" value="rule" style="rounded=0;whiteSpace=wrap;html=1;" vertex="1" parent="1">
          <mxGeometry x="464" y="700" width="80" height="20" as="geometry" />
        </mxCell>
        <mxCell id="3u4PK2hD2adv2a_8tMnY-9" value="Module" style="shape=module;align=left;spacingLeft=20;align=center;verticalAlign=top;whiteSpace=wrap;html=1;" vertex="1" parent="1">
          <mxGeometry x="280" y="640" width="110" height="90" as="geometry" />
        </mxCell>
        <mxCell id="3u4PK2hD2adv2a_8tMnY-10" value="rule" style="rounded=0;whiteSpace=wrap;html=1;" vertex="1" parent="1">
          <mxGeometry x="300" y="700" width="80" height="20" as="geometry" />
        </mxCell>
        <mxCell id="3u4PK2hD2adv2a_8tMnY-11" value="Module" style="shape=module;align=left;spacingLeft=20;align=center;verticalAlign=top;whiteSpace=wrap;html=1;" vertex="1" parent="1">
          <mxGeometry x="120" y="640" width="110" height="90" as="geometry" />
        </mxCell>
        <mxCell id="3u4PK2hD2adv2a_8tMnY-12" value="rule" style="rounded=0;whiteSpace=wrap;html=1;" vertex="1" parent="1">
          <mxGeometry x="140" y="700" width="80" height="20" as="geometry" />
        </mxCell>
        <mxCell id="3u4PK2hD2adv2a_8tMnY-13" value="" style="strokeColor=#dddddd;shadow=1;strokeWidth=1;rounded=1;absoluteArcSize=1;arcSize=2;" vertex="1" parent="1">
          <mxGeometry x="320.5" y="410" width="199.5" height="150" as="geometry" />
        </mxCell>
        <mxCell id="3u4PK2hD2adv2a_8tMnY-14" value="&lt;font color=&quot;#000000&quot;&gt;Engine&lt;/font&gt;&lt;br&gt;Rules engine" style="editableCssRules=.*;html=1;fontColor=#999999;shape=image;verticalLabelPosition=middle;verticalAlign=middle;labelPosition=right;align=left;spacingLeft=20;part=1;points=[];imageAspect=0;image=data:image/svg+xml,PHN2ZyB4bWxucz0iaHR0cDovL3d3dy53My5vcmcvMjAwMC9zdmciIHhtbG5zOnY9Imh0dHBzOi8vdmVjdGEuaW8vbmFubyIgd2lkdGg9IjIwIiBoZWlnaHQ9IjIwIiB2aWV3Qm94PSIwIDAgMjAgMjAiPiYjeGE7CTxzdHlsZSB0eXBlPSJ0ZXh0L2NzcyI+JiN4YTsJLnN0MHtmaWxsOiM0Mjg1ZjQ7fSYjeGE7CS5zdDF7ZmlsbDojNjY5ZGY2O30mI3hhOwkuc3Qye2ZpbGw6I2FlY2JmYTt9JiN4YTsJPC9zdHlsZT4mI3hhOwk8cGF0aCBjbGFzcz0ic3QyIiBkPSJNNyA3aDZ2Nkg3eiIvPiYjeGE7CTxwYXRoIGNsYXNzPSJzdDEiIGQ9Ik05IDBoMnY0SDl6TTUgMGgydjRINXptOCAwaDJ2NGgtMnoiLz4mI3hhOwk8cGF0aCBjbGFzcz0ic3QwIiBkPSJNOSAxNmgydjRIOXptLTQgMGgydjRINXptOCAwaDJ2NGgtMnptMy01VjloNHYyem0wIDR2LTJoNHYyem0wLThWNWg0djJ6Ii8+JiN4YTsJPHBhdGggY2xhc3M9InN0MSIgZD0iTTAgMTFWOWg0djJ6bTAgNHYtMmg0djJ6bTAtOFY1aDR2MnoiLz4mI3hhOwk8cGF0aCBjbGFzcz0ic3QyIiBkPSJNMyAzdjE0aDE0VjN6bTEyIDEySDVWNWgxMHoiLz4mI3hhOwk8cGF0aCBjbGFzcz0ic3QxIiBkPSJNMTAgMTBsLTMgM2g2eiIvPiYjeGE7CTxwYXRoIGNsYXNzPSJzdDAiIGQ9Ik0xMyA3bC0zIDMgMyAzeiIvPiYjeGE7PC9zdmc+;" vertex="1" parent="3u4PK2hD2adv2a_8tMnY-13">
          <mxGeometry width="30" height="30" relative="1" as="geometry">
            <mxPoint x="15" y="15" as="offset" />
          </mxGeometry>
        </mxCell>
        <mxCell id="3u4PK2hD2adv2a_8tMnY-25" value="run all rules on data" style="shape=step;perimeter=stepPerimeter;whiteSpace=wrap;html=1;fixedSize=1;" vertex="1" parent="3u4PK2hD2adv2a_8tMnY-13">
          <mxGeometry x="11.73529411764706" y="80" width="176.02941176470588" height="40" as="geometry" />
        </mxCell>
        <mxCell id="3u4PK2hD2adv2a_8tMnY-15" value="" style="endArrow=classic;html=1;rounded=0;exitX=0.5;exitY=0;exitDx=0;exitDy=0;entryX=0.5;entryY=1;entryDx=0;entryDy=0;" edge="1" parent="1" source="3u4PK2hD2adv2a_8tMnY-2" target="3u4PK2hD2adv2a_8tMnY-13">
          <mxGeometry width="50" height="50" relative="1" as="geometry">
            <mxPoint x="360" y="430" as="sourcePoint" />
            <mxPoint x="470" y="250" as="targetPoint" />
          </mxGeometry>
        </mxCell>
        <mxCell id="3u4PK2hD2adv2a_8tMnY-16" value="" style="endArrow=classic;html=1;rounded=0;exitX=0.5;exitY=0;exitDx=0;exitDy=0;entryX=0.5;entryY=1;entryDx=0;entryDy=0;" edge="1" parent="1" source="3u4PK2hD2adv2a_8tMnY-5" target="3u4PK2hD2adv2a_8tMnY-13">
          <mxGeometry width="50" height="50" relative="1" as="geometry">
            <mxPoint x="380" y="440" as="sourcePoint" />
            <mxPoint x="460" y="320" as="targetPoint" />
          </mxGeometry>
        </mxCell>
        <mxCell id="3u4PK2hD2adv2a_8tMnY-17" value="" style="endArrow=classic;html=1;rounded=0;exitX=0.5;exitY=0;exitDx=0;exitDy=0;entryX=0.5;entryY=1;entryDx=0;entryDy=0;" edge="1" parent="1" source="3u4PK2hD2adv2a_8tMnY-10" target="3u4PK2hD2adv2a_8tMnY-13">
          <mxGeometry width="50" height="50" relative="1" as="geometry">
            <mxPoint x="390" y="450" as="sourcePoint" />
            <mxPoint x="370" y="610" as="targetPoint" />
          </mxGeometry>
        </mxCell>
        <mxCell id="3u4PK2hD2adv2a_8tMnY-19" value="" style="endArrow=classic;html=1;rounded=0;exitX=1;exitY=0.5;exitDx=0;exitDy=0;entryX=0.5;entryY=1;entryDx=0;entryDy=0;" edge="1" parent="1" source="3u4PK2hD2adv2a_8tMnY-12" target="3u4PK2hD2adv2a_8tMnY-13">
          <mxGeometry width="50" height="50" relative="1" as="geometry">
            <mxPoint x="190" y="720" as="sourcePoint" />
            <mxPoint x="430" y="690" as="targetPoint" />
          </mxGeometry>
        </mxCell>
        <mxCell id="3u4PK2hD2adv2a_8tMnY-23" value="Data" style="rounded=0;whiteSpace=wrap;html=1;" vertex="1" parent="1">
          <mxGeometry x="210" y="490" width="91" height="40" as="geometry" />
        </mxCell>
        <mxCell id="3u4PK2hD2adv2a_8tMnY-24" value="" style="endArrow=classic;html=1;rounded=0;entryX=0;entryY=0.5;entryDx=0;entryDy=0;" edge="1" parent="1" source="3u4PK2hD2adv2a_8tMnY-23" target="3u4PK2hD2adv2a_8tMnY-25">
          <mxGeometry width="50" height="50" relative="1" as="geometry">
            <mxPoint x="470" y="610" as="sourcePoint" />
            <mxPoint x="520" y="560" as="targetPoint" />
          </mxGeometry>
        </mxCell>
        <mxCell id="3u4PK2hD2adv2a_8tMnY-26" value="Result" style="rounded=0;whiteSpace=wrap;html=1;" vertex="1" parent="1">
          <mxGeometry x="570" y="490" width="91" height="40" as="geometry" />
        </mxCell>
        <mxCell id="3u4PK2hD2adv2a_8tMnY-27" value="" style="endArrow=classic;html=1;rounded=0;entryX=0;entryY=0.5;entryDx=0;entryDy=0;exitX=1;exitY=0.5;exitDx=0;exitDy=0;" edge="1" parent="1" source="3u4PK2hD2adv2a_8tMnY-25" target="3u4PK2hD2adv2a_8tMnY-26">
          <mxGeometry width="50" height="50" relative="1" as="geometry">
            <mxPoint x="560" y="500" as="sourcePoint" />
            <mxPoint x="362" y="520" as="targetPoint" />
          </mxGeometry>
        </mxCell>
      </root>
    </mxGraphModel>
  </diagram>
  <diagram id="u494GhxEQ5B4g3uFtUSz" name="Scatter/Gather">
    <mxGraphModel dx="2074" dy="1140" grid="1" gridSize="10" guides="1" tooltips="1" connect="1" arrows="1" fold="1" page="1" pageScale="1" pageWidth="827" pageHeight="1169" math="0" shadow="0">
      <root>
        <mxCell id="0" />
        <mxCell id="1" parent="0" />
        <mxCell id="-S9YqmcAEN9s1MQttyIi-1" value="Module" style="shape=module;align=left;spacingLeft=20;align=center;verticalAlign=top;whiteSpace=wrap;html=1;" vertex="1" parent="1">
          <mxGeometry x="590" y="640" width="110" height="90" as="geometry" />
        </mxCell>
        <mxCell id="-S9YqmcAEN9s1MQttyIi-2" value="getData" style="rounded=0;whiteSpace=wrap;html=1;" vertex="1" parent="1">
          <mxGeometry x="610" y="700" width="80" height="20" as="geometry" />
        </mxCell>
        <mxCell id="-S9YqmcAEN9s1MQttyIi-3" value="Module" style="shape=module;align=left;spacingLeft=20;align=center;verticalAlign=top;whiteSpace=wrap;html=1;" vertex="1" parent="1">
          <mxGeometry x="444" y="640" width="110" height="90" as="geometry" />
        </mxCell>
        <mxCell id="-S9YqmcAEN9s1MQttyIi-4" value="getData" style="rounded=0;whiteSpace=wrap;html=1;" vertex="1" parent="1">
          <mxGeometry x="464" y="700" width="80" height="20" as="geometry" />
        </mxCell>
        <mxCell id="-S9YqmcAEN9s1MQttyIi-5" value="Module" style="shape=module;align=left;spacingLeft=20;align=center;verticalAlign=top;whiteSpace=wrap;html=1;" vertex="1" parent="1">
          <mxGeometry x="280" y="640" width="110" height="90" as="geometry" />
        </mxCell>
        <mxCell id="-S9YqmcAEN9s1MQttyIi-6" value="getData" style="rounded=0;whiteSpace=wrap;html=1;" vertex="1" parent="1">
          <mxGeometry x="300" y="700" width="80" height="20" as="geometry" />
        </mxCell>
        <mxCell id="-S9YqmcAEN9s1MQttyIi-7" value="Module" style="shape=module;align=left;spacingLeft=20;align=center;verticalAlign=top;whiteSpace=wrap;html=1;" vertex="1" parent="1">
          <mxGeometry x="120" y="640" width="110" height="90" as="geometry" />
        </mxCell>
        <mxCell id="-S9YqmcAEN9s1MQttyIi-8" value="getData" style="rounded=0;whiteSpace=wrap;html=1;" vertex="1" parent="1">
          <mxGeometry x="140" y="700" width="80" height="20" as="geometry" />
        </mxCell>
        <mxCell id="-S9YqmcAEN9s1MQttyIi-9" value="" style="strokeColor=#dddddd;shadow=1;strokeWidth=1;rounded=1;absoluteArcSize=1;arcSize=2;" vertex="1" parent="1">
          <mxGeometry x="320.5" y="410" width="309.5" height="150" as="geometry" />
        </mxCell>
        <mxCell id="-S9YqmcAEN9s1MQttyIi-10" value="&lt;font color=&quot;#000000&quot;&gt;Engine&lt;/font&gt;&lt;br&gt;Scatter/Gather" style="editableCssRules=.*;html=1;fontColor=#999999;shape=image;verticalLabelPosition=middle;verticalAlign=middle;labelPosition=right;align=left;spacingLeft=20;part=1;points=[];imageAspect=0;image=data:image/svg+xml,PHN2ZyB4bWxucz0iaHR0cDovL3d3dy53My5vcmcvMjAwMC9zdmciIHhtbG5zOnY9Imh0dHBzOi8vdmVjdGEuaW8vbmFubyIgd2lkdGg9IjIwIiBoZWlnaHQ9IjIwIiB2aWV3Qm94PSIwIDAgMjAgMjAiPiYjeGE7CTxzdHlsZSB0eXBlPSJ0ZXh0L2NzcyI+JiN4YTsJLnN0MHtmaWxsOiM0Mjg1ZjQ7fSYjeGE7CS5zdDF7ZmlsbDojNjY5ZGY2O30mI3hhOwkuc3Qye2ZpbGw6I2FlY2JmYTt9JiN4YTsJPC9zdHlsZT4mI3hhOwk8cGF0aCBjbGFzcz0ic3QyIiBkPSJNNyA3aDZ2Nkg3eiIvPiYjeGE7CTxwYXRoIGNsYXNzPSJzdDEiIGQ9Ik05IDBoMnY0SDl6TTUgMGgydjRINXptOCAwaDJ2NGgtMnoiLz4mI3hhOwk8cGF0aCBjbGFzcz0ic3QwIiBkPSJNOSAxNmgydjRIOXptLTQgMGgydjRINXptOCAwaDJ2NGgtMnptMy01VjloNHYyem0wIDR2LTJoNHYyem0wLThWNWg0djJ6Ii8+JiN4YTsJPHBhdGggY2xhc3M9InN0MSIgZD0iTTAgMTFWOWg0djJ6bTAgNHYtMmg0djJ6bTAtOFY1aDR2MnoiLz4mI3hhOwk8cGF0aCBjbGFzcz0ic3QyIiBkPSJNMyAzdjE0aDE0VjN6bTEyIDEySDVWNWgxMHoiLz4mI3hhOwk8cGF0aCBjbGFzcz0ic3QxIiBkPSJNMTAgMTBsLTMgM2g2eiIvPiYjeGE7CTxwYXRoIGNsYXNzPSJzdDAiIGQ9Ik0xMyA3bC0zIDMgMyAzeiIvPiYjeGE7PC9zdmc+;" vertex="1" parent="-S9YqmcAEN9s1MQttyIi-9">
          <mxGeometry width="30" height="30" relative="1" as="geometry">
            <mxPoint x="15" y="15" as="offset" />
          </mxGeometry>
        </mxCell>
        <mxCell id="-S9YqmcAEN9s1MQttyIi-11" value="gather data" style="shape=step;perimeter=stepPerimeter;whiteSpace=wrap;html=1;fixedSize=1;" vertex="1" parent="-S9YqmcAEN9s1MQttyIi-9">
          <mxGeometry x="32.5" y="80" width="121.79" height="40" as="geometry" />
        </mxCell>
        <mxCell id="-S9YqmcAEN9s1MQttyIi-21" value="process data" style="shape=step;perimeter=stepPerimeter;whiteSpace=wrap;html=1;fixedSize=1;" vertex="1" parent="-S9YqmcAEN9s1MQttyIi-9">
          <mxGeometry x="179.5" y="80" width="121.79" height="40" as="geometry" />
        </mxCell>
        <mxCell id="-S9YqmcAEN9s1MQttyIi-22" value="" style="endArrow=classic;html=1;rounded=0;entryX=0;entryY=0.5;entryDx=0;entryDy=0;exitX=1;exitY=0.5;exitDx=0;exitDy=0;" edge="1" parent="-S9YqmcAEN9s1MQttyIi-9" source="-S9YqmcAEN9s1MQttyIi-11" target="-S9YqmcAEN9s1MQttyIi-21">
          <mxGeometry width="50" height="50" relative="1" as="geometry">
            <mxPoint x="311.5" y="110" as="sourcePoint" />
            <mxPoint x="369.5" y="110" as="targetPoint" />
          </mxGeometry>
        </mxCell>
        <mxCell id="-S9YqmcAEN9s1MQttyIi-12" value="" style="endArrow=classic;html=1;rounded=0;exitX=0.5;exitY=1;exitDx=0;exitDy=0;entryX=0.5;entryY=0;entryDx=0;entryDy=0;" edge="1" parent="1" source="-S9YqmcAEN9s1MQttyIi-11" target="-S9YqmcAEN9s1MQttyIi-2">
          <mxGeometry width="50" height="50" relative="1" as="geometry">
            <mxPoint x="360" y="430" as="sourcePoint" />
            <mxPoint x="530" y="810" as="targetPoint" />
          </mxGeometry>
        </mxCell>
        <mxCell id="-S9YqmcAEN9s1MQttyIi-13" value="" style="endArrow=classic;html=1;rounded=0;entryX=0.5;entryY=0;entryDx=0;entryDy=0;exitX=0.5;exitY=1;exitDx=0;exitDy=0;" edge="1" parent="1" source="-S9YqmcAEN9s1MQttyIi-11" target="-S9YqmcAEN9s1MQttyIi-4">
          <mxGeometry width="50" height="50" relative="1" as="geometry">
            <mxPoint x="430" y="600" as="sourcePoint" />
            <mxPoint x="420" y="780" as="targetPoint" />
          </mxGeometry>
        </mxCell>
        <mxCell id="-S9YqmcAEN9s1MQttyIi-14" value="" style="endArrow=classic;html=1;rounded=0;exitX=0.5;exitY=1;exitDx=0;exitDy=0;entryX=0.5;entryY=0;entryDx=0;entryDy=0;" edge="1" parent="1" source="-S9YqmcAEN9s1MQttyIi-11" target="-S9YqmcAEN9s1MQttyIi-6">
          <mxGeometry width="50" height="50" relative="1" as="geometry">
            <mxPoint x="390" y="450" as="sourcePoint" />
            <mxPoint x="390" y="820" as="targetPoint" />
          </mxGeometry>
        </mxCell>
        <mxCell id="-S9YqmcAEN9s1MQttyIi-15" value="" style="endArrow=classic;html=1;rounded=0;strokeColor=default;entryX=1;entryY=0.5;entryDx=0;entryDy=0;exitX=0.5;exitY=1;exitDx=0;exitDy=0;" edge="1" parent="1" source="-S9YqmcAEN9s1MQttyIi-11" target="-S9YqmcAEN9s1MQttyIi-8">
          <mxGeometry width="50" height="50" relative="1" as="geometry">
            <mxPoint x="360" y="580" as="sourcePoint" />
            <mxPoint x="260" y="850" as="targetPoint" />
          </mxGeometry>
        </mxCell>
        <mxCell id="-S9YqmcAEN9s1MQttyIi-16" value="input" style="rounded=0;whiteSpace=wrap;html=1;" vertex="1" parent="1">
          <mxGeometry x="210" y="490" width="91" height="40" as="geometry" />
        </mxCell>
        <mxCell id="-S9YqmcAEN9s1MQttyIi-17" value="" style="endArrow=classic;html=1;rounded=0;entryX=0;entryY=0.5;entryDx=0;entryDy=0;" edge="1" parent="1" source="-S9YqmcAEN9s1MQttyIi-16" target="-S9YqmcAEN9s1MQttyIi-11">
          <mxGeometry width="50" height="50" relative="1" as="geometry">
            <mxPoint x="470" y="610" as="sourcePoint" />
            <mxPoint x="520" y="560" as="targetPoint" />
          </mxGeometry>
        </mxCell>
        <mxCell id="-S9YqmcAEN9s1MQttyIi-18" value="Result" style="rounded=0;whiteSpace=wrap;html=1;" vertex="1" parent="1">
          <mxGeometry x="680" y="490" width="91" height="40" as="geometry" />
        </mxCell>
        <mxCell id="-S9YqmcAEN9s1MQttyIi-19" value="" style="endArrow=classic;html=1;rounded=0;entryX=0;entryY=0.5;entryDx=0;entryDy=0;exitX=1;exitY=0.5;exitDx=0;exitDy=0;" edge="1" parent="1" source="-S9YqmcAEN9s1MQttyIi-21" target="-S9YqmcAEN9s1MQttyIi-18">
          <mxGeometry width="50" height="50" relative="1" as="geometry">
            <mxPoint x="540" y="510" as="sourcePoint" />
            <mxPoint x="362" y="520" as="targetPoint" />
          </mxGeometry>
        </mxCell>
      </root>
    </mxGraphModel>
  </diagram>
</mxfile>
